<svg xmlns="http://www.w3.org/2000/svg" width="4000" height="4000" viewBox="0 0 4000 4000"><rect width="100%" height="100%" fill="#DDDDDD"/><path fill="#999999" d="M860.56 2037.47h92.62v-99.57q0-14.1 1.9-31.15l-94.52 130.72Zm137.88 0h38.31v30.1q0 4.21-2.73 7.26-2.74 3.05-7.79 3.05h-27.79v74.31h-45.26v-74.31h-128.4q-5.26 0-9.26-3.26t-5.06-8.1l-5.47-26.32 144.19-192.6h49.26v189.87Zm282.7-37.47q0 39.78-8.52 69.15-8.53 29.36-23.58 48.52-15.05 19.15-35.57 28.52-20.53 9.37-44.31 9.37-23.79 0-44.1-9.37-20.32-9.37-35.26-28.52-14.95-19.16-23.37-48.52-8.42-29.37-8.42-69.15 0-40 8.42-69.26 8.42-29.26 23.37-48.41 14.94-19.16 35.26-28.52 20.31-9.37 44.1-9.37 23.78 0 44.31 9.37 20.52 9.36 35.57 28.52 15.05 19.15 23.58 48.41 8.52 29.26 8.52 69.26Zm-53.68 0q0-33.05-4.84-54.73t-12.94-34.52q-8.11-12.84-18.63-18-10.53-5.16-21.89-5.16-11.16 0-21.58 5.16-10.42 5.16-18.42 18-8 12.84-12.73 34.52-4.74 21.68-4.74 54.73t4.74 54.73q4.73 21.68 12.73 34.52 8 12.84 18.42 18 10.42 5.16 21.58 5.16 11.36 0 21.89-5.16 10.52-5.16 18.63-18 8.1-12.84 12.94-34.52 4.84-21.68 4.84-54.73Zm297.86 0q0 39.78-8.52 69.15-8.53 29.36-23.58 48.52-15.05 19.15-35.57 28.52-20.53 9.37-44.31 9.37-23.79 0-44.1-9.37-20.32-9.37-35.26-28.52-14.95-19.16-23.37-48.52-8.42-29.37-8.42-69.15 0-40 8.42-69.26 8.42-29.26 23.37-48.41 14.94-19.16 35.26-28.52 20.31-9.37 44.1-9.37 23.78 0 44.31 9.37 20.52 9.36 35.57 28.52 15.05 19.15 23.58 48.41 8.52 29.26 8.52 69.26Zm-53.68 0q0-33.05-4.84-54.73t-12.94-34.52q-8.11-12.84-18.63-18-10.53-5.16-21.89-5.16-11.16 0-21.58 5.16-10.42 5.16-18.42 18-8 12.84-12.73 34.52-4.74 21.68-4.74 54.73t4.74 54.73q4.73 21.68 12.73 34.52 8 12.84 18.42 18 10.42 5.16 21.58 5.16 11.36 0 21.89-5.16 10.52-5.16 18.63-18 8.1-12.84 12.94-34.52 4.84-21.68 4.84-54.73Zm297.86 0q0 39.78-8.52 69.15-8.53 29.36-23.58 48.52-15.05 19.15-35.57 28.52-20.53 9.37-44.31 9.37-23.79 0-44.1-9.37-20.32-9.37-35.26-28.52-14.95-19.16-23.37-48.52-8.42-29.37-8.42-69.15 0-40 8.42-69.26 8.42-29.26 23.37-48.41 14.94-19.16 35.26-28.52 20.31-9.37 44.1-9.37 23.78 0 44.31 9.37 20.52 9.36 35.57 28.52 15.05 19.15 23.58 48.41 8.52 29.26 8.52 69.26Zm-53.68 0q0-33.05-4.84-54.73t-12.94-34.52q-8.11-12.84-18.63-18-10.53-5.16-21.89-5.16-11.16 0-21.58 5.16-10.42 5.16-18.42 18-8 12.84-12.73 34.52-4.74 21.68-4.74 54.73t4.74 54.73q4.73 21.68 12.73 34.52 8 12.84 18.42 18 10.42 5.16 21.58 5.16 11.36 0 21.89-5.16 10.52-5.16 18.63-18 8.1-12.84 12.94-34.52 4.84-21.68 4.84-54.73Zm387.96 82.51-27.58 27.16-71.36-71.36-71.99 71.78-27.58-27.15 72-72.21-68.63-68.62 27.37-27.36 68.62 68.62 68.2-68.2 27.79 27.36-68.41 68.41 71.57 71.57Zm182.29-45.04h92.62v-99.57q0-14.1 1.89-31.15l-94.51 130.72Zm137.88 0h38.31v30.1q0 4.21-2.74 7.26t-7.79 3.05h-27.78v74.31h-45.26v-74.31h-128.41q-5.26 0-9.26-3.26t-5.05-8.1l-5.47-26.32 144.19-192.6h49.26v189.87Zm282.7-37.47q0 39.78-8.53 69.15-8.52 29.36-23.57 48.52-15.05 19.15-35.58 28.52-20.52 9.37-44.31 9.37-23.78 0-44.1-9.37-20.31-9.37-35.26-28.52-14.94-19.16-23.36-48.52-8.42-29.37-8.42-69.15 0-40 8.42-69.26 8.42-29.26 23.36-48.41 14.95-19.16 35.26-28.52 20.32-9.37 44.1-9.37 23.79 0 44.31 9.37 20.53 9.36 35.58 28.52 15.05 19.15 23.57 48.41 8.53 29.26 8.53 69.26Zm-53.68 0q0-33.05-4.84-54.73t-12.95-34.52q-8.1-12.84-18.63-18-10.52-5.16-21.89-5.16-11.15 0-21.57 5.16t-18.42 18q-8 12.84-12.74 34.52-4.73 21.68-4.73 54.73t4.73 54.73q4.74 21.68 12.74 34.52 8 12.84 18.42 18 10.42 5.16 21.57 5.16 11.37 0 21.89-5.16 10.53-5.16 18.63-18 8.11-12.84 12.95-34.52 4.84-21.68 4.84-54.73Zm297.86 0q0 39.78-8.53 69.15-8.52 29.36-23.57 48.52-15.05 19.15-35.58 28.52-20.52 9.37-44.31 9.37-23.78 0-44.1-9.37-20.31-9.37-35.26-28.52-14.94-19.16-23.36-48.52-8.42-29.37-8.42-69.15 0-40 8.42-69.26 8.42-29.26 23.36-48.41 14.95-19.16 35.26-28.52 20.32-9.37 44.1-9.37 23.79 0 44.31 9.37 20.53 9.36 35.58 28.52 15.05 19.15 23.57 48.41 8.53 29.26 8.53 69.26Zm-53.68 0q0-33.05-4.84-54.73t-12.95-34.52q-8.1-12.84-18.63-18-10.52-5.16-21.89-5.16-11.15 0-21.57 5.16t-18.42 18q-8 12.84-12.74 34.52-4.73 21.68-4.73 54.73t4.73 54.73q4.74 21.68 12.74 34.52 8 12.84 18.42 18 10.42 5.16 21.57 5.16 11.37 0 21.89-5.16 10.53-5.16 18.63-18 8.11-12.84 12.95-34.52 4.84-21.68 4.84-54.73Zm297.86 0q0 39.78-8.53 69.15-8.52 29.36-23.57 48.52-15.05 19.15-35.58 28.52-20.52 9.37-44.31 9.37-23.78 0-44.1-9.37-20.31-9.37-35.26-28.52-14.94-19.16-23.36-48.52-8.42-29.37-8.42-69.15 0-40 8.42-69.26 8.42-29.26 23.36-48.41 14.95-19.16 35.26-28.52 20.32-9.37 44.1-9.37 23.79 0 44.31 9.37 20.53 9.36 35.58 28.52 15.05 19.15 23.57 48.41 8.53 29.26 8.53 69.26Zm-53.68 0q0-33.05-4.84-54.73t-12.95-34.52q-8.1-12.84-18.63-18-10.52-5.16-21.89-5.16-11.15 0-21.57 5.16t-18.42 18q-8 12.84-12.74 34.52-4.73 21.68-4.73 54.73t4.73 54.73q4.74 21.68 12.74 34.52 8 12.84 18.42 18 10.42 5.16 21.57 5.16 11.37 0 21.89-5.16 10.53-5.16 18.63-18 8.11-12.84 12.95-34.52 4.84-21.68 4.84-54.73Z"/></svg>